<svg width="20" height="20" viewBox="0 0 20 20" fill="none" xmlns="http://www.w3.org/2000/svg">
<path d="M7.0565 6.99541L7.05463 6.99693L7.05284 6.99867L7.0565 6.99541ZM15.3516 6.83997C15.2936 6.78409 15.2293 6.7352 15.1599 6.69429C15.0617 6.63651 14.9528 6.59948 14.8397 6.58549C14.7266 6.5715 14.6119 6.58086 14.5026 6.61297C14.3933 6.64508 14.2918 6.69927 14.2042 6.77219C14.1167 6.84511 14.0451 6.9352 13.9938 7.03691C13.7067 7.60248 13.3108 8.10581 12.8288 8.51803C12.9025 8.1027 12.9396 7.6817 12.9398 7.25988C12.9414 5.97663 12.6029 4.71589 11.9587 3.60602C11.3146 2.49615 10.3878 1.57679 9.27284 0.941549C9.15002 0.871922 9.01151 0.834641 8.87033 0.833204C8.72915 0.831767 8.58992 0.866221 8.4657 0.933334C8.34148 1.00045 8.23635 1.09802 8.16016 1.21689C8.08398 1.33577 8.03925 1.47204 8.03017 1.61294C7.98353 2.40309 7.77697 3.17554 7.42299 3.8835C7.06902 4.59145 6.57499 5.22018 5.97086 5.73158L5.7788 5.88783C5.14706 6.3129 4.58788 6.83691 4.12272 7.43974C3.39965 8.35066 2.89875 9.41753 2.65976 10.5557C2.42077 11.6939 2.45026 12.8721 2.74588 13.997C3.0415 15.1218 3.59513 16.1623 4.36286 17.0359C5.13058 17.9095 6.0913 18.5922 7.16881 19.0299C7.29532 19.0816 7.43262 19.1014 7.56858 19.0875C7.70454 19.0736 7.83499 19.0264 7.94842 18.9502C8.06185 18.874 8.15478 18.771 8.219 18.6503C8.28323 18.5297 8.31678 18.3951 8.31669 18.2584C8.3161 18.17 8.3021 18.0822 8.27519 17.998C8.08875 17.2972 8.03506 16.5677 8.1169 15.8471C8.90543 17.3344 10.1712 18.5133 11.7107 19.1943C11.8986 19.2784 12.111 19.2897 12.3068 19.226C13.5231 18.8335 14.6188 18.1364 15.4898 17.2011C16.3608 16.2658 16.9782 15.1233 17.2833 13.8821C17.5884 12.641 17.5711 11.3425 17.233 10.1099C16.8949 8.87735 16.2473 7.75172 15.3516 6.83997ZM12.0976 17.5325C11.3712 17.1644 10.7304 16.6475 10.2169 16.0154C9.70338 15.3834 9.32865 14.6503 9.11705 13.8639C9.05243 13.5991 9.00244 13.331 8.96731 13.0607C8.94351 12.8886 8.86651 12.7282 8.74708 12.602C8.62765 12.4757 8.47176 12.39 8.30122 12.3567C8.24868 12.3464 8.19525 12.3412 8.14169 12.3413C7.99523 12.3412 7.85134 12.3798 7.72453 12.4531C7.59773 12.5264 7.4925 12.6318 7.41944 12.7588C6.728 13.9514 6.38027 15.3121 6.4148 16.6903C5.80667 16.2174 5.29843 15.6286 4.91953 14.9579C4.54064 14.2872 4.29863 13.548 4.20753 12.7831C4.11643 12.0182 4.17805 11.2428 4.38882 10.5019C4.59959 9.76093 4.95532 9.06921 5.43539 8.46678C5.7999 7.99331 6.23963 7.58286 6.73706 7.25178C6.7586 7.23788 6.77925 7.22266 6.79891 7.20621C6.79891 7.20621 7.04615 7.00164 7.0546 6.99696C8.24185 5.99276 9.08627 4.64322 9.47022 3.13638C10.3782 3.97574 10.9836 5.09141 11.1925 6.31014C11.4014 7.52887 11.202 8.78248 10.6254 9.87629C10.5492 10.0223 10.518 10.1875 10.5356 10.3512C10.5532 10.5149 10.6189 10.6697 10.7244 10.7961C10.8299 10.9225 10.9705 11.0148 11.1284 11.0614C11.2863 11.108 11.4545 11.1068 11.6117 11.058C12.8882 10.6578 14.0115 9.87622 14.8303 8.81838C15.3225 9.54529 15.6442 10.3739 15.7716 11.2424C15.899 12.111 15.8287 12.9971 15.566 13.8347C15.3033 14.6723 14.855 15.4398 14.2545 16.0801C13.654 16.7203 12.9167 17.2168 12.0976 17.5325L12.0976 17.5325Z" fill="url(#paint0_linear_150_1898)"/>
<defs>
<linearGradient id="paint0_linear_150_1898" x1="2.5" y1="10.05" x2="17.5" y2="10.05" gradientUnits="userSpaceOnUse">
<stop stop-color="#FFA439"/>
<stop offset="1" stop-color="#FF5E4A"/>
</linearGradient>
</defs>
</svg>
