<svg xmlns="http://www.w3.org/2000/svg" width="18" height="18" fill="none" viewBox="0 0 18 18"><path fill="#BBB" fill-rule="evenodd" d="M15.4203 10.7561C15.1064 10.9545 14.7367 10.9791 14.4558 10.8206C14.0988 10.6191 13.9026 10.1472 13.9026 9.4908V7.52707C13.9026 6.57878 13.5277 5.904 12.9007 5.7218C11.8383 5.41229 11.0393 6.71224 10.739 7.20044L8.86522 10.2385V6.52522C8.84415 5.67088 8.56668 5.15985 8.03985 5.00576C7.69127 4.9039 7.16971 4.94473 6.66307 5.72005L2.46512 12.4608C1.90312 11.3939 1.61014 10.2059 1.61166 9C1.61166 4.93946 4.86571 1.63624 8.86522 1.63624C12.8647 1.63624 16.1183 4.93946 16.1183 9C16.1183 9.007 16.1201 9.0132 16.1205 9.0198C16.1205 9.0268 16.1192 9.0329 16.1197 9.04C16.1574 9.8262 15.9028 10.4514 15.4203 10.7561ZM17.73 9.0004V8.97981L17.7296 8.95961C17.7072 4.01444 13.7397 0 8.86478 0C3.97712 0 0 4.03727 0 9C0 13.9623 3.97712 18 8.86522 18C11.1082 18 13.2489 17.1474 14.8921 15.5999C15.2188 15.2925 15.2381 14.7749 14.9352 14.4439C14.8639 14.3653 14.7776 14.3017 14.6814 14.2568C14.5852 14.212 14.481 14.1867 14.375 14.1827C14.2689 14.1786 14.1631 14.1957 14.0638 14.233C13.9644 14.2703 13.8735 14.3271 13.7963 14.4C12.4644 15.6613 10.6996 16.3641 8.86522 16.3638C6.72366 16.3638 4.79678 15.4159 3.46785 13.9127L7.25356 7.83395V10.6362C7.25356 11.9823 7.77556 12.4174 8.21327 12.5447C8.65141 12.672 9.3209 12.5851 10.0238 11.4436L12.1061 8.06795C12.1728 7.95907 12.2343 7.86512 12.2905 7.7839V9.4908C12.2905 10.7491 12.7945 11.7553 13.673 12.251C14.465 12.6979 15.4607 12.6575 16.272 12.1456C17.2554 11.5244 17.7853 10.3799 17.73 9.0004Z" clip-rule="evenodd"/></svg>