<svg xmlns="http://www.w3.org/2000/svg" width="20" height="11" fill="none" viewBox="0 0 20 11"><path fill="#BBB" d="M4.83476 0C5.63686 0 6.35039 0.16239 6.97534 0.48717C7.60521 0.80702 8.11206 1.24498 8.49589 1.80104C8.88463 2.3571 9.11346 2.98451 9.18235 3.68327H6.92367C6.82033 3.12721 6.58905 2.66957 6.22982 2.31035C5.8706 1.95113 5.38343 1.77151 4.76833 1.77151C4.02035 1.77151 3.43231 2.052 3.00419 2.61298C2.581 3.16904 2.3694 4.10647 2.3694 5.4253C2.3694 6.7539 2.581 7.7159 3.00419 8.3114C3.43231 8.9019 4.02035 9.1971 4.76833 9.1971C5.38343 9.1971 5.8706 8.9929 6.22982 8.5845C6.58905 8.1711 6.82033 7.6864 6.92367 7.1303H9.18235C9.11838 7.6372 8.99535 8.1219 8.81328 8.5845C8.63121 9.047 8.37286 9.4579 8.03824 9.8171C7.70363 10.1714 7.27305 10.4519 6.74652 10.6586C6.2249 10.8653 5.58765 10.9686 4.83476 10.9686C3.84074 10.9686 2.98205 10.7373 2.25868 10.2748C1.53531 9.8122 0.976793 9.1627 0.583123 8.3261C0.194374 7.4896 0 6.5128 0 5.3957C0 4.27378 0.194374 3.31175 0.583123 2.50964C0.971872 1.70262 1.52547 1.08259 2.24392 0.64956C2.96729 0.21652 3.8309 0 4.83476 0Z"/><path fill="#BBB" d="M15.4014 10.9686C14.4222 10.9686 13.5733 10.7472 12.8549 10.3043C12.1364 9.8565 11.5804 9.2242 11.1867 8.4073C10.793 7.5904 10.5962 6.626 10.5962 5.5138C10.5962 4.38204 10.8004 3.40524 11.2089 2.58346C11.6222 1.75675 12.198 1.1195 12.9361 0.6717C13.6742 0.2239 14.5354 0 15.5195 0C16.1543 0 16.7325 0.10334 17.2542 0.31002C17.7807 0.51177 18.2359 0.78734 18.6197 1.13672C19.0035 1.48118 19.3037 1.87485 19.5202 2.31773C19.7417 2.75569 19.8622 3.21087 19.8819 3.68327H17.6085C17.51 3.17642 17.2738 2.74093 16.8999 2.37678C16.5308 2.00772 16.0535 1.82318 15.4679 1.82318C14.9906 1.82318 14.56 1.9462 14.1761 2.19225C13.7972 2.43337 13.4971 2.81966 13.2756 3.35111C13.0542 3.88257 12.9435 4.58379 12.9435 5.4548C12.9435 6.3947 13.069 7.1279 13.3199 7.6544C13.5709 8.176 13.8957 8.5426 14.2942 8.7542C14.6928 8.9658 15.1136 9.0716 15.5565 9.0716C15.9796 9.0716 16.3413 8.9831 16.6415 8.8059C16.9417 8.6287 17.1754 8.4098 17.3427 8.149C17.515 7.8832 17.6208 7.6224 17.6601 7.3665L17.7413 6.717H15.5343V5.226L20 5.2481V10.821H18.5311V9.4259C18.3441 9.6671 18.1178 9.9082 17.852 10.1493C17.5863 10.3855 17.2542 10.5823 16.8556 10.7398C16.4619 10.8924 15.9772 10.9686 15.4014 10.9686Z"/></svg>