<svg xmlns="http://www.w3.org/2000/svg" width="208" height="63" fill="none" viewBox="0 0 208 63"><path fill="#FFA43A" d="M55.1862 6.47406C54.6451 4.39617 52.4364 -0.145492 51.8287 0.284927C51.3914 0.59661 53.2591 4.59654 52.6366 5.89522C52.3475 6.50375 51.7397 6.21433 50.8577 5.83585C49.9757 5.45738 46.974 4.31454 43.5349 6.48148C40.0884 8.65584 38.8136 13.0936 40.0884 18.1028C41.7487 24.6185 43.357 25.9097 41.9933 25.8578C41.6078 25.8429 39.6956 25.5684 37.8575 26.3624C36.0194 27.1565 30.001 30.6443 33.8848 41.4939C34.3517 42.8 34.7001 43.8909 34.9595 44.8185C35.0262 45.0782 35.3375 45.9391 34.8335 46.2507C34.3295 46.5624 33.7217 45.3676 33.1362 44.2545C32.5507 43.1413 15.2961 9.1011 15.2961 9.1011C14.0213 6.68185 11.4939 5.03438 8.57362 5.03438C4.37856 5.0418 0.976562 8.44805 0.976562 12.6558C0.976562 13.8654 1.25821 15.0157 1.76221 16.0323L22.8339 57.7311C24.546 60.9815 26.94 63 30.5124 63C33.7217 63 36.4863 61.1151 37.776 58.3915C38.9693 56.2023 39.7253 52.6774 38.191 47.0077C36.516 40.8186 35.4042 39.1414 35.7674 38.8C36.175 38.429 36.7087 39.2156 37.7019 39.7499C37.7019 39.7499 37.7019 39.7499 37.7093 39.7499C39.7771 40.9744 42.3194 41.1673 44.491 40.0319C45.7288 39.3863 47.604 37.8056 48.0783 34.8892C48.5527 31.9653 46.9517 28.6852 46.0846 26.8151C43.8759 22.0063 42.6751 18.5703 42.9864 18.2809C43.3941 17.9024 43.7795 18.5703 44.9209 19.2308C46.8109 20.3217 51.6656 20.9228 54.4376 17.0342C57.343 12.9526 55.1862 6.47406 55.1862 6.47406Z"/><path fill="#FFA43A" d="M79.1756 31.2088C78.8804 31.3741 78.5102 31.5244 78.07 31.6496C77.6297 31.7749 77.2245 31.84 76.8692 31.84C76.0037 31.84 75.3333 31.6647 74.863 31.319C74.3877 30.9684 74.1526 30.3773 74.1526 29.5307V21.2955H78.6753C79.3057 21.2955 79.6259 20.9349 79.6259 20.2185C79.6259 20.0082 79.5959 19.8128 79.5308 19.6325C79.4658 19.4521 79.4058 19.3119 79.3407 19.2067H74.1476V15.565C74.1476 14.8036 73.7073 14.4229 72.8218 14.4229C72.5667 14.4229 72.3315 14.4479 72.1114 14.503C71.8913 14.5531 71.7262 14.6032 71.6211 14.6433V29.686C71.6211 31.2088 72.0814 32.2958 72.9969 32.947C73.9125 33.6032 75.1132 33.9289 76.5891 33.9289C77.5597 33.9289 78.3201 33.7786 78.8654 33.488C79.4158 33.1925 79.6859 32.8118 79.6859 32.3459C79.6859 32.0905 79.6309 31.8701 79.5258 31.6797C79.4158 31.4944 79.3007 31.3341 79.1756 31.2088Z"/><path fill="#FFA43A" d="M89.4344 18.4756C88.2537 18.4756 87.193 18.6108 86.2575 18.8713C85.3169 19.1368 84.5765 19.4474 84.0262 19.808C83.6059 20.0785 83.3057 20.3641 83.1256 20.6496C82.9455 20.9351 82.8555 21.3208 82.8555 21.8067V32.5416C82.8555 33.303 83.3107 33.6837 84.2163 33.6837C84.4714 33.6837 84.7016 33.6536 84.9117 33.6035C85.1218 33.5534 85.2819 33.5033 85.387 33.4633V21.6114C85.8722 21.3359 86.4826 21.0954 87.223 20.8951C87.9635 20.6947 88.814 20.5945 89.7846 20.5945C90.1198 20.5945 90.46 20.6145 90.7952 20.6596C91.1304 20.7047 91.4055 20.7448 91.6156 20.7848C91.7207 20.6596 91.8058 20.5043 91.8708 20.329C91.9358 20.1487 91.9658 19.9533 91.9658 19.7429C91.9658 18.8964 91.1204 18.4756 89.4344 18.4756Z"/><path fill="#FFA43A" d="M106.08 18.7261C105.85 18.7261 105.619 18.7561 105.399 18.8062C105.179 18.8563 105.014 18.9064 104.909 18.9465V31.0137C104.574 31.2041 104.109 31.3894 103.518 31.5697C102.928 31.7501 102.212 31.8402 101.367 31.8402C100.101 31.8402 99.1106 31.5497 98.3951 30.9686C97.6797 30.3876 97.3195 29.4108 97.3195 28.0382V19.9032C97.3195 19.1218 96.8792 18.7311 95.9937 18.7311C95.7385 18.7311 95.5034 18.7611 95.2833 18.8112C95.0631 18.8613 94.898 18.9114 94.793 18.9515V28.1685C94.793 30.1521 95.3583 31.6098 96.484 32.5365C97.6147 33.4682 99.2306 33.9291 101.342 33.9291C102.543 33.9291 103.573 33.8039 104.424 33.5484C105.279 33.2929 105.95 33.0324 106.435 32.7569C106.88 32.5065 107.155 32.246 107.27 31.9805C107.385 31.72 107.446 31.3644 107.446 30.9185V19.8982C107.441 19.1168 106.985 18.7261 106.08 18.7261Z"/><path fill="#FFA43A" d="M117.874 25.1576L115.693 24.6216C114.958 24.4512 114.427 24.1958 114.112 23.8602C113.797 23.5195 113.637 23.1088 113.637 22.6229C113.637 21.9717 113.917 21.4607 114.477 21.1001C115.038 20.7444 115.788 20.5641 116.739 20.5641C117.689 20.5641 118.51 20.7144 119.205 21.0049C119.901 21.3004 120.436 21.5759 120.816 21.8314C121.046 21.7262 121.231 21.5659 121.372 21.3555C121.507 21.1451 121.577 20.9047 121.577 20.6242C121.577 20.0531 121.121 19.5522 120.216 19.1214C119.31 18.6906 118.12 18.4702 116.639 18.4702C115.713 18.4702 114.903 18.5804 114.217 18.8058C113.532 19.0262 112.957 19.3268 112.491 19.7075C112.026 20.0882 111.686 20.529 111.461 21.0349C111.24 21.5409 111.13 22.0719 111.13 22.6179C111.13 23.6347 111.426 24.4613 112.016 25.1024C112.606 25.7486 113.542 26.2395 114.828 26.5752L117.454 27.2715C118.91 27.6321 119.636 28.4086 119.636 29.6158C119.636 31.0935 118.54 31.8299 116.349 31.8299C115.378 31.8299 114.512 31.6646 113.757 31.339C112.997 31.0134 112.336 30.6377 111.766 30.2169C111.491 30.3872 111.286 30.5876 111.15 30.818C111.01 31.0484 110.945 31.2939 110.945 31.5493C110.945 31.8449 111.075 32.1354 111.341 32.4209C111.606 32.7065 111.976 32.962 112.446 33.1824C112.921 33.4028 113.492 33.5831 114.172 33.7183C114.848 33.8536 115.583 33.9237 116.384 33.9237C118.26 33.9237 119.696 33.543 120.686 32.7816C121.677 32.0202 122.172 30.9683 122.172 29.6158C122.172 28.4136 121.812 27.4568 121.096 26.7505C120.381 26.0492 119.305 25.5182 117.874 25.1576Z"/><path fill="#FFA43A" d="M133.194 31.2088C132.899 31.3741 132.529 31.5244 132.088 31.6496C131.643 31.7749 131.243 31.84 130.888 31.84C130.022 31.84 129.352 31.6647 128.881 31.319C128.406 30.9684 128.171 30.3773 128.171 29.5307V21.2955H132.694C133.324 21.2955 133.644 20.9349 133.644 20.2185C133.644 20.0082 133.614 19.8128 133.549 19.6325C133.484 19.4521 133.424 19.3119 133.359 19.2067H128.171V15.565C128.171 14.8036 127.731 14.4229 126.845 14.4229C126.59 14.4229 126.355 14.4479 126.135 14.503C125.915 14.5531 125.75 14.6032 125.645 14.6433V29.686C125.645 31.2088 126.105 32.2958 127.02 32.947C127.936 33.6032 129.132 33.9289 130.613 33.9289C131.583 33.9289 132.339 33.7786 132.889 33.488C133.439 33.1925 133.709 32.8118 133.709 32.3459C133.709 32.0905 133.654 31.8701 133.549 31.6797C133.434 31.4944 133.319 31.3341 133.194 31.2088Z"/><path fill="#FFA43A" d="M156.47 10.2151C156.245 10.3354 156.916 11.3923 156.705 11.798C156.605 11.9884 156.41 11.9884 156.185 11.9333C155.96 11.8782 155.685 11.8231 155.385 11.8231C154.709 11.8231 154.154 12.0385 153.724 12.4743C153.288 12.9051 153.073 13.4311 153.073 14.0422C153.073 14.6733 153.288 15.2093 153.724 15.6401C154.154 16.0759 154.734 16.2913 155.385 16.2913C156.035 16.2913 157.526 15.9206 157.821 13.8769C158.116 11.8281 156.695 10.0949 156.47 10.2151Z"/><path fill="#FFA43A" d="M150.233 18.5702C149.863 18.3147 149.408 18.1895 148.857 18.1895C148.542 18.1895 148.217 18.2295 147.892 18.2997C147.567 18.3748 147.276 18.485 147.021 18.6303C146.576 20.5538 146.061 22.5024 145.47 24.4761C144.88 26.4497 144.28 28.3682 143.669 30.2217H143.544C143.459 29.9461 143.349 29.6055 143.214 29.1948C143.074 28.784 142.934 28.3482 142.789 27.8974C142.644 27.4465 142.489 26.9807 142.328 26.5048C142.168 26.0289 142.028 25.5831 141.903 25.1573L140.322 19.9327C140.132 19.2765 139.862 18.8256 139.517 18.5702C139.172 18.3147 138.721 18.1895 138.171 18.1895C137.751 18.1895 137.345 18.2796 136.955 18.46C136.565 18.6403 136.265 18.8557 136.055 19.1061C136.225 19.7624 136.44 20.4987 136.7 21.3252C136.965 22.1468 137.25 23.0033 137.556 23.89C137.861 24.7766 138.181 25.6683 138.521 26.5649C138.856 27.4616 139.187 28.3131 139.502 29.1146C139.817 29.9161 140.112 30.6324 140.387 31.2686C140.662 31.8998 140.893 32.4007 141.083 32.7563C141.273 33.117 141.583 33.3725 142.013 33.5328C142.443 33.6931 142.969 33.7732 143.579 33.7732C144.084 33.7732 144.55 33.7181 144.97 33.6129C145.39 33.5077 145.71 33.3725 145.921 33.2022C146.216 32.6511 146.541 31.9749 146.901 31.1784C147.261 30.3769 147.617 29.5254 147.977 28.6287C148.337 27.7321 148.682 26.8154 149.022 25.8887C149.358 24.9619 149.658 24.0953 149.923 23.2939C150.183 22.4924 150.398 21.7811 150.553 21.17C150.713 20.5588 150.788 20.113 150.788 19.8425C150.788 19.2464 150.603 18.8206 150.233 18.5702Z"/><path fill="#FFA43A" d="M155.197 18.3799C154.816 18.3799 154.466 18.4099 154.136 18.4751C153.811 18.5402 153.561 18.5953 153.391 18.6354V31.8748C153.391 32.5711 153.566 33.057 153.911 33.3325C154.256 33.608 154.811 33.7432 155.572 33.7432C155.952 33.7432 156.302 33.7132 156.633 33.6481C156.958 33.5879 157.208 33.5328 157.373 33.4928V20.2483C157.373 19.552 157.198 19.0661 156.853 18.7906C156.513 18.5151 155.957 18.3799 155.197 18.3799Z"/><path fill="#FFA43A" d="M173.853 20.043C173.198 19.3768 172.437 18.8859 171.562 18.5553C170.686 18.2297 169.741 18.0644 168.73 18.0644C168.01 18.0644 167.364 18.1445 166.784 18.2998C166.203 18.4601 165.693 18.6555 165.248 18.8859V14.5479C165.248 13.8516 165.068 13.3657 164.713 13.0902C164.352 12.8197 163.807 12.6794 163.067 12.6794C162.666 12.6794 162.301 12.7045 161.976 12.7596C161.651 12.8097 161.401 12.8698 161.23 12.9299V30.2869C161.23 30.7728 161.336 31.1886 161.546 31.5392C161.756 31.8849 162.081 32.2105 162.526 32.506C163.117 32.9068 163.867 33.2574 164.773 33.5529C165.678 33.8485 166.744 33.9938 167.97 33.9938C169.17 33.9938 170.261 33.8234 171.241 33.4878C172.222 33.1472 173.058 32.6413 173.758 31.965C174.453 31.2888 174.989 30.4572 175.374 29.4654C175.754 28.4736 175.944 27.3114 175.944 25.979C175.944 24.6465 175.759 23.4944 175.389 22.5126C175.019 21.5308 174.503 20.7093 173.853 20.043ZM170.786 29.6057C170.071 30.3971 169.12 30.7929 167.939 30.7929C167.329 30.7929 166.789 30.7127 166.324 30.5574C165.858 30.4021 165.493 30.2368 165.218 30.0665V22.1469C165.578 21.9165 165.993 21.7061 166.469 21.5157C166.944 21.3254 167.464 21.2302 168.035 21.2302C169.175 21.2302 170.096 21.6159 170.801 22.3723C171.507 23.1337 171.862 24.3359 171.862 25.984C171.857 27.607 171.502 28.8142 170.786 29.6057Z"/><path fill="#FFA43A" d="M190.834 19.9128C190.223 19.3317 189.483 18.8808 188.622 18.5502C187.757 18.2246 186.806 18.0593 185.776 18.0593C184.765 18.0593 183.805 18.2196 182.899 18.5352C181.993 18.8508 181.198 19.3367 180.513 19.9929C179.827 20.6491 179.282 21.4606 178.882 22.4324C178.481 23.4042 178.281 24.5463 178.281 25.8537C178.281 27.2062 178.486 28.3884 178.897 29.4003C179.307 30.4121 179.877 31.2637 180.608 31.945C181.333 32.6312 182.209 33.1422 183.234 33.4828C184.255 33.8184 185.39 33.9888 186.636 33.9888C187.417 33.9888 188.142 33.9236 188.818 33.7984C189.493 33.6732 190.078 33.4928 190.574 33.2624C191.069 33.032 191.459 32.7515 191.744 32.4209C192.029 32.0953 192.17 31.7196 192.17 31.2988C192.17 30.9582 192.074 30.6426 191.884 30.347C191.694 30.0515 191.454 29.8211 191.159 29.6507C190.694 29.9463 190.088 30.2268 189.343 30.4873C188.592 30.7528 187.777 30.883 186.891 30.883C185.711 30.883 184.72 30.6426 183.92 30.1567C183.119 29.6708 182.569 28.8893 182.274 27.8123L191.069 26.545C191.614 26.4598 192.044 26.2745 192.35 25.9739C192.655 25.6784 192.81 25.2376 192.81 24.6415C192.81 23.6947 192.635 22.8081 192.29 21.9966C191.924 21.1951 191.444 20.4938 190.834 19.9128ZM182.008 25.0322C182.094 23.7649 182.484 22.7881 183.179 22.1018C183.875 21.4155 184.74 21.0749 185.771 21.0749C186.801 21.0749 187.582 21.3654 188.112 21.9465C188.637 22.5276 188.948 23.2088 189.028 23.9903L182.008 25.0322Z"/><path fill="#FFA43A" d="M206.202 26.2495C205.422 25.478 204.156 24.892 202.405 24.4912L200.854 24.1105C200.199 23.9652 199.744 23.7749 199.478 23.5395C199.213 23.309 199.083 23.0085 199.083 22.6528C199.083 22.1669 199.313 21.7912 199.779 21.5257C200.244 21.2603 200.884 21.13 201.71 21.13C202.11 21.13 202.515 21.1651 202.925 21.2402C203.336 21.3154 203.726 21.4055 204.096 21.5107C204.466 21.6159 204.802 21.7311 205.107 21.8614C205.412 21.9866 205.662 22.1168 205.847 22.2421C206.077 22.0718 206.277 21.8463 206.448 21.5608C206.618 21.2753 206.698 20.9447 206.698 20.564C206.698 20.1632 206.568 19.8076 206.302 19.502C206.037 19.1964 205.667 18.936 205.197 18.7106C204.722 18.4901 204.166 18.3198 203.521 18.2046C202.88 18.0894 202.175 18.0293 201.42 18.0293C199.438 18.0293 197.897 18.4601 196.802 19.3117C195.706 20.1632 195.156 21.2803 195.156 22.6528C195.156 23.855 195.531 24.8168 196.282 25.5331C197.027 26.2495 198.183 26.7905 199.744 27.1461L201.515 27.5569C202.78 27.8324 203.411 28.4034 203.411 29.27C203.411 29.776 203.191 30.1717 202.745 30.4572C202.305 30.7427 201.65 30.883 200.784 30.883C199.774 30.883 198.883 30.7377 198.113 30.4422C197.342 30.1466 196.662 29.806 196.071 29.4303C195.776 29.6207 195.541 29.8611 195.361 30.1567C195.181 30.4522 195.091 30.8029 195.091 31.2036C195.091 31.6244 195.236 32.0101 195.516 32.3607C195.801 32.7064 196.201 33.0069 196.717 33.2474C197.232 33.4928 197.842 33.6782 198.553 33.8034C199.258 33.9286 200.044 33.9937 200.909 33.9937C203.021 33.9937 204.621 33.578 205.717 32.7414C206.813 31.9099 207.363 30.7528 207.363 29.275C207.373 28.0277 206.983 27.0209 206.202 26.2495Z"/><path fill="#fff" d="M87 42.392C85.992 42.392 84.872 42.728 83.656 43.416C83.288 42.728 82.6 42.392 81.592 42.392C80.648 42.392 79.592 42.696 78.424 43.304L78.328 42.504H75.864V51H78.584V45.224C79.272 44.952 79.832 44.808 80.264 44.808C80.984 44.808 81.272 45.176 81.272 45.928V51H83.992V45.224C84.68 44.952 85.24 44.808 85.672 44.808C86.36 44.808 86.696 45.176 86.696 45.928V51H89.416V44.968C89.416 43.256 88.616 42.392 87 42.392ZM95.1159 42.392C93.7719 42.392 92.3799 42.696 90.9239 43.288L91.7559 45.112C92.7959 44.744 93.6919 44.552 94.4759 44.552C95.3559 44.552 95.7559 44.968 95.7719 46.04C95.6599 46.024 95.4679 46.024 95.1959 46.024C92.3319 46.024 90.6199 47.032 90.6199 48.744C90.6199 50.232 91.6919 51.128 93.3559 51.128C94.3319 51.128 95.1959 50.872 95.9479 50.36L96.0279 51H98.4919V46.184C98.4919 43.656 97.3719 42.392 95.1159 42.392ZM93.2119 48.616C93.2119 48.024 93.9159 47.72 95.3239 47.72H95.7719V48.76C95.3079 49.064 94.7639 49.224 94.1559 49.224C93.5319 49.224 93.2119 48.952 93.2119 48.616ZM105.938 42.408C104.85 42.408 103.778 42.712 102.706 43.32L102.594 42.504H100.13V51H102.85V45.48C103.698 45.144 104.738 44.984 105.938 44.984V42.408ZM116.183 51L112.727 46.024L115.927 42.504H112.647L109.943 45.448V39.112H107.223V51H109.943V49.08L110.903 48.024L113.031 51H116.183ZM124.287 47.112C124.287 45.688 123.935 44.552 123.231 43.688C122.527 42.824 121.519 42.392 120.207 42.392C118.911 42.392 117.871 42.792 117.055 43.608C116.239 44.424 115.839 45.464 115.839 46.76C115.839 48.056 116.239 49.096 117.055 49.912C117.871 50.728 118.927 51.128 120.223 51.128C121.455 51.128 122.687 50.856 123.903 50.296L123.071 48.456C122.143 48.856 121.295 49.064 120.527 49.064C119.535 49.064 118.895 48.648 118.607 47.8H124.287V47.112ZM120.207 44.424C121.135 44.424 121.663 44.984 121.807 46.088H118.511C118.687 45.08 119.263 44.424 120.207 44.424ZM130.958 42.504H128.99V40.84H126.27V42.504H125.15V44.856H126.27V48.472C126.27 49.448 126.654 51.128 129.006 51.128C129.79 51.128 130.446 51.064 130.958 50.952L130.782 48.664C130.382 48.712 130.014 48.744 129.678 48.744C129.214 48.744 128.99 48.504 128.99 48.04V44.856H130.958V42.504ZM136.314 42.632C135.114 42.632 134.09 42.904 133.21 43.448C132.922 43.624 132.778 43.928 132.778 44.376V54.632H134.138V50.776C134.954 51 135.674 51.112 136.314 51.112C137.45 51.112 138.394 50.728 139.13 49.944C139.866 49.16 140.234 48.136 140.234 46.872C140.234 45.624 139.866 44.6 139.13 43.816C138.394 43.032 137.45 42.632 136.314 42.632ZM136.266 49.88C135.546 49.88 134.826 49.768 134.138 49.544V44.344C134.778 44.04 135.482 43.88 136.266 43.88C137.866 43.88 138.858 45.112 138.858 46.888C138.858 48.68 137.85 49.88 136.266 49.88ZM144.138 51.112C144.234 51.112 144.522 51.096 145.002 51.064L144.906 49.816C144.65 49.832 144.458 49.848 144.346 49.848C143.786 49.848 143.466 49.48 143.466 48.888V39.112H142.106V49.016C142.106 49.64 142.25 50.232 142.89 50.744C143.21 50.984 143.626 51.112 144.138 51.112ZM150.049 42.632C148.897 42.632 147.664 42.904 146.337 43.432L146.833 44.488C147.905 44.056 148.913 43.848 149.873 43.848C150.913 43.848 151.441 44.536 151.441 45.912V46.344C151.169 46.344 150.545 46.328 150.401 46.328C147.601 46.328 146.017 47.272 146.017 48.92C146.017 50.28 147.041 51.112 148.689 51.112C149.729 51.112 150.673 50.84 151.489 50.296L151.585 51H152.817V45.928C152.817 43.768 151.857 42.632 150.049 42.632ZM147.377 48.888C147.377 47.896 148.513 47.4 150.769 47.4H151.441V49.208C151.137 49.416 150.753 49.608 150.257 49.768C149.761 49.912 149.329 49.992 148.929 49.992C147.921 49.992 147.377 49.576 147.377 48.888ZM158.514 51.112C159.426 51.112 160.402 50.92 161.41 50.52L160.93 49.416C160.002 49.72 159.218 49.88 158.562 49.88C156.978 49.88 155.97 48.664 155.97 46.872C155.97 45.096 156.962 43.88 158.562 43.88C159.218 43.88 160.002 44.072 160.93 44.472L161.41 43.368C160.37 42.872 159.41 42.632 158.514 42.632C157.378 42.632 156.434 43.032 155.698 43.816C154.978 44.6 154.61 45.608 154.61 46.872C154.61 48.12 154.978 49.144 155.698 49.928C156.434 50.712 157.378 51.112 158.514 51.112ZM170.006 47.032C170.006 44.792 169.046 42.632 166.39 42.632C165.254 42.632 164.31 43.032 163.574 43.816C162.838 44.6 162.47 45.608 162.47 46.872C162.47 48.136 162.838 49.16 163.558 49.944C164.294 50.728 165.254 51.112 166.438 51.112C167.462 51.112 168.518 50.872 169.622 50.408L169.142 49.352C168.198 49.736 167.334 49.928 166.518 49.928C165.046 49.928 164.07 49.016 163.862 47.496H170.006V47.032ZM166.39 43.816C167.798 43.816 168.566 44.68 168.694 46.392H163.862C164.038 44.84 164.966 43.816 166.39 43.816Z"/></svg>