<svg xmlns="http://www.w3.org/2000/svg" width="20" height="20" fill="none" viewBox="0 0 20 20"><path stroke="url(#paint0_linear_150_1892)" stroke-linecap="round" stroke-linejoin="round" stroke-width="1.5" d="M0.833008 10C0.833008 10 4.16634 3.33334 9.99967 3.33334C15.833 3.33334 19.1663 10 19.1663 10C19.1663 10 15.833 16.6667 9.99967 16.6667C4.16634 16.6667 0.833008 10 0.833008 10Z"/><path stroke="url(#paint1_linear_150_1892)" stroke-linecap="round" stroke-linejoin="round" stroke-width="1.5" d="M10 12.5C11.3807 12.5 12.5 11.3807 12.5 10C12.5 8.61929 11.3807 7.5 10 7.5C8.61929 7.5 7.5 8.61929 7.5 10C7.5 11.3807 8.61929 12.5 10 12.5Z"/><defs><linearGradient id="paint0_linear_150_1892" x1=".833" x2="19.166" y1="10" y2="10" gradientUnits="userSpaceOnUse"><stop stop-color="#FFA439"/><stop offset="1" stop-color="#FF5E4A"/></linearGradient><linearGradient id="paint1_linear_150_1892" x1="7.5" x2="12.5" y1="10" y2="10" gradientUnits="userSpaceOnUse"><stop stop-color="#FFA439"/><stop offset="1" stop-color="#FF5E4A"/></linearGradient></defs></svg>