<svg width="32" height="32" viewBox="0 0 32 32" fill="none" xmlns="http://www.w3.org/2000/svg">
<path d="M9.78534 13.4467L16 7.23203L22.2176 13.4494L25.8336 9.83338L16 0L6.1696 9.83044L9.78547 13.4465L9.78534 13.4467ZM0 16.0001L3.61613 12.3834L7.232 15.9993L3.61587 19.6154L0 16.0001ZM9.78534 18.5538L16 24.7681L22.2175 18.5509L25.8354 22.165L25.8336 22.1669L16 32.0001L6.1696 22.1697L6.16448 22.1646L9.78573 18.5534L9.78534 18.5538ZM24.768 16.0016L28.3841 12.3855L32 16.0013L28.384 19.6175L24.768 16.0016Z" fill="#E9BA35"/>
<path d="M19.6667 15.9981H19.6683L15.9993 12.3289L13.2874 15.04L12.9758 15.3517L12.3332 15.9944L12.3281 15.9994L12.3332 16.0046L15.9993 19.6712L19.6685 16.002L19.6703 15.9999L19.667 15.9981" fill="#E9BA35"/>
</svg>
