<svg width="20" height="20" viewBox="0 0 20 20" fill="none" xmlns="http://www.w3.org/2000/svg">
<g clip-path="url(#clip0_150_1889)">
<path d="M8.6 4.63259L9.09091 4.09623V7.35987C9.09091 7.60097 9.18669 7.8322 9.35718 8.00269C9.52766 8.17318 9.75889 8.26896 10 8.26896C10.2411 8.26896 10.4723 8.17318 10.6428 8.00269C10.8133 7.8322 10.9091 7.60097 10.9091 7.35987V4.09623L11.4 4.59623C11.4825 4.68943 11.5833 4.76469 11.6961 4.81735C11.8089 4.87001 11.9313 4.89894 12.0557 4.90234C12.1802 4.90575 12.304 4.88357 12.4195 4.83717C12.535 4.79077 12.6398 4.72114 12.7273 4.63259C12.8125 4.54808 12.8801 4.44753 12.9263 4.33675C12.9724 4.22597 12.9962 4.10715 12.9962 3.98714C12.9962 3.86713 12.9724 3.7483 12.9263 3.63752C12.8801 3.52674 12.8125 3.4262 12.7273 3.34168L10.6455 1.25987C10.559 1.1771 10.457 1.11222 10.3455 1.06896C10.1241 0.978032 9.87587 0.978032 9.65454 1.06896C9.54295 1.11222 9.441 1.1771 9.35454 1.25987L7.27273 3.30532C7.09672 3.48133 6.99784 3.72004 6.99784 3.96896C6.99784 4.21787 7.09672 4.45659 7.27273 4.63259C7.44873 4.8086 7.68745 4.90748 7.93636 4.90748C8.18528 4.90748 8.42399 4.8086 8.6 4.63259ZM10 10.0871C9.4606 10.0871 8.9333 10.2471 8.48481 10.5468C8.03631 10.8464 7.68675 11.2724 7.48033 11.7707C7.27391 12.2691 7.2199 12.8174 7.32513 13.3465C7.43036 13.8755 7.69011 14.3615 8.07153 14.7429C8.45294 15.1243 8.9389 15.384 9.46793 15.4893C9.99697 15.5945 10.5453 15.5405 11.0437 15.3341C11.542 15.1277 11.968 14.7781 12.2676 14.3296C12.5673 13.8811 12.7273 13.3538 12.7273 12.8144C12.7273 12.0911 12.4399 11.3974 11.9285 10.8859C11.417 10.3745 10.7233 10.0871 10 10.0871ZM10 13.7235C9.8202 13.7235 9.64443 13.6702 9.49494 13.5703C9.34544 13.4704 9.22892 13.3284 9.16011 13.1623C9.0913 12.9962 9.0733 12.8134 9.10838 12.6371C9.14345 12.4607 9.23004 12.2987 9.35718 12.1716C9.48431 12.0444 9.6463 11.9579 9.82264 11.9228C9.99899 11.8877 10.1818 11.9057 10.3479 11.9745C10.514 12.0433 10.656 12.1598 10.7559 12.3093C10.8558 12.4588 10.9091 12.6346 10.9091 12.8144C10.9091 13.0555 10.8133 13.2867 10.6428 13.4572C10.4723 13.6277 10.2411 13.7235 10 13.7235ZM3.63636 12.8144C3.63636 12.9942 3.68968 13.17 3.78957 13.3195C3.88947 13.469 4.03145 13.5855 4.19756 13.6543C4.36368 13.7231 4.54646 13.7411 4.72281 13.706C4.89916 13.671 5.06114 13.5844 5.18828 13.4572C5.31542 13.3301 5.402 13.1681 5.43708 12.9918C5.47215 12.8154 5.45415 12.6326 5.38534 12.4665C5.31654 12.3004 5.20002 12.1584 5.05052 12.0585C4.90102 11.9586 4.72526 11.9053 4.54545 11.9053C4.30435 11.9053 4.07312 12.0011 3.90263 12.1716C3.73214 12.3421 3.63636 12.5733 3.63636 12.8144ZM16.3636 12.8144C16.3636 12.6346 16.3103 12.4588 16.2104 12.3093C16.1105 12.1598 15.9686 12.0433 15.8024 11.9745C15.6363 11.9057 15.4535 11.8877 15.2772 11.9228C15.1008 11.9579 14.9389 12.0444 14.8117 12.1716C14.6846 12.2987 14.598 12.4607 14.5629 12.6371C14.5278 12.8134 14.5458 12.9962 14.6147 13.1623C14.6835 13.3284 14.8 13.4704 14.9495 13.5703C15.099 13.6702 15.2747 13.7235 15.4545 13.7235C15.6957 13.7235 15.9269 13.6277 16.0974 13.4572C16.2679 13.2867 16.3636 13.0555 16.3636 12.8144ZM17.2727 6.45078H13.6364C13.3953 6.45078 13.164 6.54655 12.9935 6.71704C12.8231 6.88753 12.7273 7.11876 12.7273 7.35987C12.7273 7.60097 12.8231 7.8322 12.9935 8.00269C13.164 8.17318 13.3953 8.26896 13.6364 8.26896H17.2727C17.5138 8.26896 17.7451 8.36474 17.9156 8.53522C18.086 8.70571 18.1818 8.93694 18.1818 9.17805V16.4508C18.1818 16.6919 18.086 16.9231 17.9156 17.0936C17.7451 17.2641 17.5138 17.3599 17.2727 17.3599H2.72727C2.48617 17.3599 2.25494 17.2641 2.08445 17.0936C1.91396 16.9231 1.81818 16.6919 1.81818 16.4508V9.17805C1.81818 8.93694 1.91396 8.70571 2.08445 8.53522C2.25494 8.36474 2.48617 8.26896 2.72727 8.26896H6.36364C6.60474 8.26896 6.83597 8.17318 7.00646 8.00269C7.17695 7.8322 7.27273 7.60097 7.27273 7.35987C7.27273 7.11876 7.17695 6.88753 7.00646 6.71704C6.83597 6.54655 6.60474 6.45078 6.36364 6.45078H2.72727C2.00395 6.45078 1.31026 6.73811 0.7988 7.24957C0.287337 7.76104 0 8.45473 0 9.17805V16.4508C0 17.1741 0.287337 17.8678 0.7988 18.3792C1.31026 18.8907 2.00395 19.178 2.72727 19.178H17.2727C17.996 19.178 18.6897 18.8907 19.2012 18.3792C19.7127 17.8678 20 17.1741 20 16.4508V9.17805C20 8.45473 19.7127 7.76104 19.2012 7.24957C18.6897 6.73811 17.996 6.45078 17.2727 6.45078Z" fill="url(#paint0_linear_150_1889)"/>
</g>
<defs>
<linearGradient id="paint0_linear_150_1889" x1="-7.45058e-08" y1="10.0894" x2="20" y2="10.0894" gradientUnits="userSpaceOnUse">
<stop stop-color="#FFA439"/>
<stop offset="1" stop-color="#FF5E4A"/>
</linearGradient>
<clipPath id="clip0_150_1889">
<rect width="20" height="20" fill="white"/>
</clipPath>
</defs>
</svg>
