<svg xmlns="http://www.w3.org/2000/svg" width="20" height="20" fill="none" viewBox="0 0 20 20"><path fill="url(#paint0_linear_150_1886)" d="M14.9998 8.33328C14.9998 8.11227 14.912 7.90031 14.7557 7.74403C14.5994 7.58775 14.3875 7.49995 14.1665 7.49995H4.50812L6.42479 5.59162C6.58171 5.4347 6.66987 5.22187 6.66987 4.99995C6.66987 4.77803 6.58171 4.5652 6.42479 4.40828C6.26787 4.25136 6.05504 4.16321 5.83312 4.16321C5.61121 4.16321 5.39838 4.25136 5.24146 4.40828L1.90812 7.74162C1.79249 7.8588 1.71416 8.00761 1.68302 8.16927C1.65187 8.33093 1.66931 8.49819 1.73312 8.64995C1.79564 8.80213 1.90181 8.93241 2.03824 9.02435C2.17467 9.11629 2.33527 9.1658 2.49979 9.16662H14.1665C14.3875 9.16662 14.5994 9.07882 14.7557 8.92254C14.912 8.76626 14.9998 8.5543 14.9998 8.33328ZM18.2665 11.35C18.2039 11.1978 18.0978 11.0675 17.9613 10.9756C17.8249 10.8836 17.6643 10.8341 17.4998 10.8333H5.83312C5.61211 10.8333 5.40015 10.9211 5.24387 11.0774C5.08759 11.2336 4.99979 11.4456 4.99979 11.6666C4.99979 11.8876 5.08759 12.0996 5.24387 12.2559C5.40015 12.4122 5.61211 12.4999 5.83312 12.4999H15.4915L13.5748 14.4083C13.4967 14.4858 13.4347 14.5779 13.3924 14.6795C13.3501 14.781 13.3283 14.8899 13.3283 14.9999C13.3283 15.11 13.3501 15.2189 13.3924 15.3204C13.4347 15.422 13.4967 15.5141 13.5748 15.5916C13.6523 15.6697 13.7444 15.7317 13.846 15.774C13.9475 15.8163 14.0564 15.8381 14.1665 15.8381C14.2765 15.8381 14.3854 15.8163 14.4869 15.774C14.5885 15.7317 14.6807 15.6697 14.7581 15.5916L18.0915 12.2583C18.2071 12.1411 18.2854 11.9923 18.3166 11.8306C18.3477 11.669 18.3303 11.5017 18.2665 11.35Z"/><defs><linearGradient id="paint0_linear_150_1886" x1="1.668" x2="18.332" y1="10.001" y2="10.001" gradientUnits="userSpaceOnUse"><stop stop-color="#FFA439"/><stop offset="1" stop-color="#FF5E4A"/></linearGradient></defs></svg>