<svg xmlns="http://www.w3.org/2000/svg" width="20" height="20" fill="none" viewBox="0 0 20 20"><path fill="url(#paint0_linear_150_1895)" d="M1.36264 0L0.351648 1.04784L5.53846 6.42369C5.5351 6.42818 5.54181 6.44197 5.53846 6.44647L6.54945 7.47153C6.54612 7.47638 6.55276 7.48944 6.54945 7.49431L8.08791 9.06606C8.08526 9.07184 8.09051 9.08303 8.08791 9.08884L18.6374 20L19.6484 18.9522L15.2527 14.3964C18.0909 12.7947 19.7143 10.4328 19.7143 10.4328L20 10L19.7143 9.5672C19.7143 9.5672 16.2919 4.61221 10.7033 4.21412C10.4723 4.18406 10.2387 4.16856 10 4.16856C9.77345 4.16856 9.56014 4.18691 9.34066 4.21412C8.17907 4.29302 7.095 4.55305 6.13187 4.94305L1.36264 0ZM10 5.62642C12.3272 5.62642 14.2198 7.58797 14.2198 10C14.2198 10.9408 13.9406 11.8151 13.4506 12.5285L11.9121 10.9112C12.0387 10.6317 12.1099 10.3297 12.1099 10C12.1099 8.79216 11.1654 7.81321 10 7.81321C9.68193 7.81321 9.39048 7.88704 9.12088 8.01822L7.56044 6.42369C8.09001 6.03293 8.71352 5.77448 9.38462 5.67198C9.59043 5.65694 9.78807 5.62642 10 5.62642ZM3.51648 6.40091C1.50084 7.85075 0.347604 9.47827 0.285714 9.5672L0 10L0.285714 10.4328C0.433449 10.6454 3.8115 15.396 9.2967 15.7859C9.52769 15.8159 9.76128 15.8314 10 15.8314C10.1921 15.8314 10.3798 15.8204 10.5714 15.8087C10.6092 15.8047 10.6438 15.7906 10.6813 15.7859C11.2343 15.7456 11.7829 15.6668 12.3297 15.5353L12.1758 15.3759L11.1209 14.2825C11.1135 14.2834 11.1063 14.2815 11.0989 14.2825L11.0549 14.2369C10.7146 14.3295 10.3685 14.3736 10 14.3736C9.84538 14.3736 9.68982 14.359 9.53846 14.3508C7.42342 14.116 5.78022 12.2535 5.78022 10C5.78022 9.61804 5.82277 9.25941 5.91209 8.90661L4.81319 7.74487C4.53117 8.43809 4.37363 9.20109 4.37363 10C4.37363 11.0746 4.67358 12.073 5.16484 12.9385C3.49454 11.9308 2.29775 10.6537 1.75824 10C2.22804 9.42925 3.18418 8.37595 4.52747 7.44875L3.51648 6.40091ZM14.8132 7.01595C16.6971 8.14774 17.8702 9.61851 18.1758 10.0228C17.7835 10.5331 16.7049 11.8799 14.8352 12.9841C15.3378 12.1133 15.6264 11.087 15.6264 10C15.6264 8.90726 15.3199 7.8911 14.8132 7.01595Z"/><defs><linearGradient id="paint0_linear_150_1895" x1="0" x2="20" y1="10" y2="10" gradientUnits="userSpaceOnUse"><stop stop-color="#FFA439"/><stop offset="1" stop-color="#FF5E4A"/></linearGradient></defs></svg>