<svg xmlns="http://www.w3.org/2000/svg" width="102" height="68" fill="none" viewBox="0 0 102 68"><path stroke="#FCA23A" stroke-width="2" d="M81.2564 25.8634L81.4045 26.6147L82.1684 26.6676C92.7044 27.397 101 36.0656 101 46.75C101 57.9277 91.9277 67 80.75 67H25.5C11.9848 67 1 56.0152 1 42.5C1 29.8831 10.555 19.4708 22.8432 18.1644L23.3766 18.1077L23.6244 17.6319C28.7718 7.74901 39.1054 1 51 1C65.9828 1 78.4569 11.6602 81.2564 25.8634ZM29.75 39.25H41.5V55.25V56.25H42.5H59.5H60.5V55.25V39.25H72.25H74.6642L72.9571 37.5429L51.7071 16.2929L51 15.5858L50.2929 16.2929L29.0429 37.5429L27.3358 39.25H29.75Z"/></svg>